<svg focusable="false" version="1.1" xmlns="http://www.w3.org/2000/svg" xmlns:xlink="http://www.w3.org/1999/xlink" x="0px" y="0px" viewBox="0 0 238 90" xml:space="preserve">
  <g>
    <path d="m98.87496 15.58887 11.51463 0 .13725.13751 0 50.03436-.13725.13713-11.51463 0c-.13713 0-.13713-.13713-.13713-.13713l0-50.03436c0 0 0-.13751.13713-.13751"/>
    <path d="m95.03658 15.58887c0 0 .13725.13751 0 .27376l-15.21574 24.67537c-.13725.13675-.13725.41113 0 .68513l15.353 24.40038c.13675.13724 0 .27437 0 .27437l-14.25637 0c-.13713 0-.27438-.13713-.41113-.13713l-9.1845-15.07912c-.13725-.13725-.13725-.13725-.2745 0l-8.63576 14.94188c-.13662.13724-.27387.27437-.41112.27437l-13.29638 0c-.27438 0-.27438-.13713-.13725-.13713l15.627-25.90875c.27438-.27312.27438-.54811 0-.82187l-13.708-23.1675c-.13725-.13625 0-.27376 0-.27376l13.84525 0c.13713 0 .27388.13751.27388.27376l8.36187 13.9825c.13712.1375.13712.1375.27388 0l8.63625-13.9825c0-.13625.13725-.27376.27438-.27376l12.88525 0"/>
    <path d="m193.45934 1.33263 41.39876 64.56525-35.91498 0-13.57002-21.11024-1.64502 0-.95998-1.50838-16.175 0 26.86624-41.94663" fill="#f7e109"/>
    <path d="m190.85559 41.22313 15.90125 24.67474-50.58249 0 15.90126-24.67474 18.78 0" fill="#231f20"/>
    <path d="m186.74309 41.22313 15.90126 24.67474-50.5825 0 15.90123-24.67474 18.78001 0" fill="#c93437"/>
    <path d="m44.1802 15.5889-10.6924 0c-.1372 0-.2745.1375-.2745.2737l-32.2133 49.8981c0 0 0 .13721.13721.13721l13.02249 0c.1366 0 .2739 0 .2739-.13721l4.3867-6.8544c.1372 0 .1372-.1368.2744-.1368l13.708 0c.1367 0 .1367.1368.1367.1368l0 6.7172c0 .1372 0 .27441.1373.27441l11.2406 0 .1373-.13721 0-49.8981c0-.1362-.1373-.2737-.2744-.2737l0 0zm-11.2407 33.311c0 .1372 0 .1372 0 .1372l-8.4985 0c-.1373 0-.1373 0-.1373-.1372l9.0469-14.3935 0 0-.4111 14.3935"/>
    <path d="m117.24371 65.89787 15.21562 0c1.91875-.13713 3.83875-.41162 5.62126-.95987 6.98999-2.19289 10.69124-9.18464 10.69124-15.07863 0-9.4585-7.40251-12.748-16.175-16.44925-1.50874-.68625-3.42751-1.645-3.42751-3.70125 0-2.05626 2.05626-3.15375 4.25002-3.15375l11.92624 0c.13626 0 .13626 0 .13626-.13626l0-10.83c0-.13625 0-.13625-.13626-.13625l-12.47499 0c-10.41749 0-16.58638 6.16876-16.58638 14.80376 0 7.53999 4.79788 11.24112 11.78889 14.11963 4.935 1.91887 8.08748 2.74161 8.08748 6.71724 0 2.05612-1.23375 4.11224-3.83876 4.11224 0 0-14.94099 0-15.07813 0l0 0c0 0 0 10.41801 0 10.55525 0 .13713.13712.13713 0 .13713"/>
    <path d="m155.21434 15.31512c-2.33 0-4.1125 1.91875-4.1125 4.25 0 2.19374 1.7825 4.1125 4.1125 4.1125 2.33 0 4.25-1.91876 4.25-4.1125 0-2.33125-1.92-4.25-4.25-4.25zm0 7.95c-2.05626 0-3.70126-1.64374-3.70126-3.7 0-2.19376 1.645-3.83875 3.70126-3.83875 2.19374 0 3.83875 1.64499 3.83875 3.83875 0 2.05626-1.64499 3.7-3.83875 3.7"/>
    <path d="m157.27058 21.89513-.95877-2.19376c.54752-.13625.82251-.685.82251-1.23375 0-.41125-.1375-.82249-.54875-1.09625-.27373-.27374-.68498-.27374-1.09624-.27374l-1.7825 0 0 4.7975.54875 0 0-2.05626 1.37 0 .96001 2.05626.685 0zm-3.01501-2.60501 0-1.78123 1.23375 0c.27376 0 .54875 0 .68501.27374.27374.13625.41124.27374.41124.685 0 .13751-.1375.41125-.27376.54875-.27374.27374-.54874.27374-.82249.27374l-1.23375 0"/>
    <path d="m11.14359 84.5405c-1.37063.68501-2.46683.9595-3.97513.9595-3.9751 0-5.89405-2.46774-5.89405-4.93463 0-2.605 2.19336-5.07225 6.03125-5.07225 1.50781 0 2.74117.27388 3.70118.82275l0 2.19337c-1.09663-.54887-2.19336-.9595-3.42676-.9595-2.19335 0-3.70165 1.23337-3.70165 3.01563 0 1.6445 1.5083 2.87851 3.56445 2.87851 1.3706 0 2.19334-.27451 3.70071-.9595l0 2.05611"/>
    <path d="m25.53759 85.5c-3.70162 0-5.75775-2.46774-5.75775-4.93463 0-2.46774 2.05612-5.07225 5.75775-5.07225 3.83788 0 5.75688 2.74174 5.75688 5.07225 0 2.46689-2.05613 4.93463-5.75688 4.93463zm0-7.95026c-1.91937 0-3.15325 1.23337-3.15325 3.01563 0 1.78175 1.23388 2.87851 3.15325 2.87851 1.919 0 3.15288-1.09676 3.15288-2.87851 0-1.78226-1.23388-3.01563-3.15288-3.01563"/>
    <path d="m48.70409 75.63037 2.05612 0 0 9.73238-2.46775 0 0-6.03125-2.74163 3.01563-.274 0-2.74162-3.01563 0 6.03125-2.46738 0 0-9.73238 2.05625 0 3.29 3.70113 3.29-3.70113"/>
    <path d="m69.26559 75.63037 2.19337 0 0 9.73238-2.46775 0 0-6.03125-2.74125 3.01563-.41163 0-2.74112-3.01563 0 6.03125-2.46788 0 0-9.73238 2.19337 0 3.29013 3.70113 3.15275-3.70113"/>
    <path d="m90.65033 75.63037 0 5.62012c0 3.15276-2.33049 4.24951-5.07224 4.24951-2.87888 0-4.93501-1.23387-4.93501-4.24951l0-5.62012 2.46776 0 0 5.62012c0 1.371 1.09662 2.19339 2.46725 2.19339 1.37062 0 2.60449-.54839 2.60449-2.33063l0-5.48288 2.46774 0"/>
    <path d="m109.97846 85.36275-2.05663 0-5.61964-6.1685 0 6.1685-2.46774 0 0-9.73238 2.33064 0 5.34612 6.03175 0-6.03175 2.46725 0 0 9.73238"/>
    <path d="m119.57371 85.36275 2.46778 0 0-9.73241-2.46778 0 0 9.73241z"/>
    <path d="m140.13684 84.5405c-1.37126.68501-2.46875.9595-3.97626.9595-3.83876 0-5.89499-2.46774-5.89499-4.93463 0-2.605 2.19374-5.07225 6.03249-5.07225 1.50751 0 2.74126.27388 3.70125.82275l0 2.19337c-1.09749-.54887-2.19374-.9595-3.42749-.9595-2.19376 0-3.70125 1.23337-3.70125 3.01563 0 1.6445 1.50749 2.87851 3.56375 2.87851 1.37125 0 2.19374-.27451 3.7025-.9595l0 2.05611"/>
    <path d="m158.09435 85.36275-2.60501 0-.82248-1.91887-4.52376 0-.82248 1.91887-2.60501 0 3.97623-9.73238 3.015 0 4.38751 9.73238zm-5.89499-7.40237-1.37126 3.83838 3.01625 0-1.64499-3.83838"/>
    <path d="m172.76184 77.41263-3.56502 0 0 7.95012-2.60373 0 0-7.95012-3.56502 0 0-1.78226 9.73375 0 0 1.78226"/>
    <path d="m180.4381 85.36275 2.4673 0 0-9.73241-2.4673 0 0 9.73241z"/>
    <path d="m196.33934 85.5c-3.70125 0-5.75751-2.46774-5.75751-4.93463 0-2.46774 1.91875-5.07225 5.75751-5.07225 3.70125 0 5.75624 2.74174 5.75624 5.07225 0 2.46689-2.1925 4.93463-5.75624 4.93463zm0-7.95026c-1.92 0-3.15375 1.23337-3.15375 3.01563 0 1.78175 1.23375 2.87851 3.15375 2.87851 1.91875 0 3.1525-1.09676 3.1525-2.87851 0-1.78226-1.23375-3.01563-3.1525-3.01563"/>
    <path d="m219.64183 85.36275-2.05623 0-5.62001-6.1685 0 6.1685-2.4675 0 0-9.73238 2.33 0 5.34624 6.03175 0-6.03175 2.4675 0 0 9.73238"/>
    <path d="m234.30934 78.23486c-1.50751-.68512-2.33-.9595-3.28876-.9595-.82376 0-1.37123.41113-1.37123.82225 0 1.50824 5.07123 1.09662 5.07123 4.52386 0 1.78175-1.64499 2.87851-3.83748 2.87851-1.78252 0-2.60501-.41113-3.70128-.9595l0-2.05612c1.50752.9595 2.33002 1.23387 3.42751 1.23387.95876 0 1.50752-.27437 1.50752-.82275 0-1.645-5.07253-1.09674-5.07253-4.52351 0-1.78212 1.50876-2.87888 3.83878-2.87888 1.09624 0 2.05623.27388 3.42624.82275l0 1.91899"/>
  </g>
</svg>