<?xml version="1.0" encoding="UTF-8"?>
<!DOCTYPE svg PUBLIC "-//W3C//DTD SVG 1.1//EN" "http://www.w3.org/Graphics/SVG/1.1/DTD/svg11.dtd">
<svg version="1.2" width="20.64mm" height="9mm" viewBox="0 0 2064 900" preserveAspectRatio="xMidYMid" fill-rule="evenodd" stroke-width="28.222" stroke-linejoin="round" xmlns="http://www.w3.org/2000/svg" xmlns:ooo="http://xml.openoffice.org/svg/export" xmlns:xlink="http://www.w3.org/1999/xlink" xmlns:presentation="http://sun.com/xmlns/staroffice/presentation" xmlns:smil="http://www.w3.org/2001/SMIL20/" xmlns:anim="urn:oasis:names:tc:opendocument:xmlns:animation:1.0" xml:space="preserve">
 <defs class="ClipPathGroup">
  <clipPath id="presentation_clip_path" clipPathUnits="userSpaceOnUse">
   <rect x="0" y="0" width="2064" height="900"/>
  </clipPath>
  <clipPath id="presentation_clip_path_shrink" clipPathUnits="userSpaceOnUse">
   <rect x="2" y="0" width="2060" height="899"/>
  </clipPath>
 </defs>
 <defs class="TextShapeIndex">
  <g ooo:slide="id1" ooo:id-list="id3"/>
 </defs>
 <defs class="EmbeddedBulletChars">
  <g id="bullet-char-template-57356" transform="scale(0.00048828125,-0.00048828125)">
   <path d="M 580,1141 L 1163,571 580,0 -4,571 580,1141 Z"/>
  </g>
  <g id="bullet-char-template-57354" transform="scale(0.00048828125,-0.00048828125)">
   <path d="M 8,1128 L 1137,1128 1137,0 8,0 8,1128 Z"/>
  </g>
  <g id="bullet-char-template-10146" transform="scale(0.00048828125,-0.00048828125)">
   <path d="M 174,0 L 602,739 174,1481 1456,739 174,0 Z M 1358,739 L 309,1346 659,739 1358,739 Z"/>
  </g>
  <g id="bullet-char-template-10132" transform="scale(0.00048828125,-0.00048828125)">
   <path d="M 2015,739 L 1276,0 717,0 1260,543 174,543 174,936 1260,936 717,1481 1274,1481 2015,739 Z"/>
  </g>
  <g id="bullet-char-template-10007" transform="scale(0.00048828125,-0.00048828125)">
   <path d="M 0,-2 C -7,14 -16,27 -25,37 L 356,567 C 262,823 215,952 215,954 215,979 228,992 255,992 264,992 276,990 289,987 310,991 331,999 354,1012 L 381,999 492,748 772,1049 836,1024 860,1049 C 881,1039 901,1025 922,1006 886,937 835,863 770,784 769,783 710,716 594,584 L 774,223 C 774,196 753,168 711,139 L 727,119 C 717,90 699,76 672,76 641,76 570,178 457,381 L 164,-76 C 142,-110 111,-127 72,-127 30,-127 9,-110 8,-76 1,-67 -2,-52 -2,-32 -2,-23 -1,-13 0,-2 Z"/>
  </g>
  <g id="bullet-char-template-10004" transform="scale(0.00048828125,-0.00048828125)">
   <path d="M 285,-33 C 182,-33 111,30 74,156 52,228 41,333 41,471 41,549 55,616 82,672 116,743 169,778 240,778 293,778 328,747 346,684 L 369,508 C 377,444 397,411 428,410 L 1163,1116 C 1174,1127 1196,1133 1229,1133 1271,1133 1292,1118 1292,1087 L 1292,965 C 1292,929 1282,901 1262,881 L 442,47 C 390,-6 338,-33 285,-33 Z"/>
  </g>
  <g id="bullet-char-template-9679" transform="scale(0.00048828125,-0.00048828125)">
   <path d="M 813,0 C 632,0 489,54 383,161 276,268 223,411 223,592 223,773 276,916 383,1023 489,1130 632,1184 813,1184 992,1184 1136,1130 1245,1023 1353,916 1407,772 1407,592 1407,412 1353,268 1245,161 1136,54 992,0 813,0 Z"/>
  </g>
  <g id="bullet-char-template-8226" transform="scale(0.00048828125,-0.00048828125)">
   <path d="M 346,457 C 273,457 209,483 155,535 101,586 74,649 74,723 74,796 101,859 155,911 209,963 273,989 346,989 419,989 480,963 531,910 582,859 608,796 608,723 608,648 583,586 532,535 482,483 420,457 346,457 Z"/>
  </g>
  <g id="bullet-char-template-8211" transform="scale(0.00048828125,-0.00048828125)">
   <path d="M -4,459 L 1135,459 1135,606 -4,606 -4,459 Z"/>
  </g>
  <g id="bullet-char-template-61548" transform="scale(0.00048828125,-0.00048828125)">
   <path d="M 173,740 C 173,903 231,1043 346,1159 462,1274 601,1332 765,1332 928,1332 1067,1274 1183,1159 1299,1043 1357,903 1357,740 1357,577 1299,437 1183,322 1067,206 928,148 765,148 601,148 462,206 346,322 231,437 173,577 173,740 Z"/>
  </g>
 </defs>
 <g>
  <g id="id2" class="Master_Slide">
   <g id="bg-id2" class="Background"/>
   <g id="bo-id2" class="BackgroundObjects"/>
  </g>
 </g>
 <g class="SlideGroup">
  <g>
   <g id="container-id1">
    <g id="id1" class="Slide" clip-path="url(#presentation_clip_path)">
     <g class="Page">
      <g class="Graphic">
       <g id="id3">
        <rect class="BoundingBox" stroke="none" fill="none" x="0" y="0" width="2064" height="900"/>
        <path fill="rgb(0,0,0)" stroke="none" d="M 958,198 L 959,199 959,627 958,628 859,628 C 858,628 858,627 858,627 L 858,199 C 858,199 858,198 859,198 L 958,198 Z"/>
        <path fill="rgb(0,0,0)" stroke="none" d="M 826,200 L 696,411 C 695,412 695,415 696,417 L 828,626 C 829,627 828,628 828,628 L 706,628 C 704,628 703,627 702,627 L 624,498 C 622,497 622,497 621,498 L 547,626 C 546,627 545,628 544,628 L 430,628 C 428,628 428,627 429,627 L 563,405 C 565,403 565,401 563,398 L 445,200 C 444,199 445,198 445,198 L 564,198 C 565,198 566,199 566,200 L 638,320 C 639,321 639,321 640,320 L 714,200 C 714,199 715,198 716,198 L 826,198 C 826,198 828,199 826,200 Z"/>
        <path fill="rgb(247,225,9)" stroke="none" d="M 2023,628 L 1716,628 1599,448 1585,448 1577,435 1439,435 1669,76 2023,628 Z"/>
        <path fill="rgb(35,31,32)" stroke="none" d="M 1782,628 L 1350,628 1486,417 1646,417 1782,628 Z"/>
        <path fill="rgb(201,52,55)" stroke="none" d="M 1747,628 L 1314,628 1450,417 1611,417 1747,628 Z"/>
        <path fill="rgb(0,0,0)" stroke="none" d="M 300,198 C 299,198 297,199 297,200 L 22,627 C 22,627 22,628 23,628 L 134,628 C 136,628 137,628 137,627 L 174,568 C 175,568 175,567 177,567 L 294,567 C 295,567 295,568 295,568 L 295,626 C 295,627 295,628 296,628 L 392,628 394,627 394,200 C 394,199 392,198 391,198 L 300,198 Z M 295,484 L 222,484 C 221,484 221,484 221,483 L 299,360 295,483 295,484 Z"/>
        <path fill="rgb(0,0,0)" stroke="none" d="M 1016,628 L 1147,628 C 1163,627 1180,625 1195,620 1255,601 1286,541 1286,491 1286,410 1223,382 1148,350 1135,344 1119,336 1119,319 1119,301 1136,292 1155,292 L 1257,292 C 1258,292 1258,292 1258,291 L 1258,198 C 1258,197 1258,197 1257,197 L 1150,197 C 1061,197 1008,250 1008,323 1008,388 1049,420 1109,444 1151,461 1178,468 1178,502 1178,519 1168,537 1145,537 1145,537 1018,537 1016,537 L 1016,537 C 1016,537 1016,626 1016,627 1016,628 1018,628 1016,628 Z"/>
        <path fill="rgb(0,0,0)" stroke="none" d="M 1341,196 C 1321,196 1306,212 1306,232 1306,251 1321,267 1341,267 1361,267 1378,251 1378,232 1378,212 1361,196 1341,196 Z M 1310,232 C 1310,213 1324,199 1341,199 1360,199 1374,213 1374,232 1374,250 1360,264 1341,264 1324,264 1310,250 1310,232 Z"/>
        <path fill="rgb(0,0,0)" stroke="none" d="M 1351,233 C 1355,232 1358,227 1358,223 1358,219 1357,215 1353,213 1351,211 1347,211 1344,211 L 1328,211 1328,252 1333,252 1333,234 1345,234 1353,252 1359,252 1351,233 Z M 1333,214 L 1344,214 C 1346,214 1348,214 1350,217 1352,218 1353,219 1353,223 1353,224 1352,226 1351,227 1348,230 1346,230 1344,230 L 1333,230 1333,214 Z"/>
        <path fill="rgb(0,0,0)" stroke="none" d="M 109,788 C 97,794 87,796 75,796 41,796 24,775 24,754 24,731 43,710 76,710 89,710 99,713 107,717 L 107,736 C 98,731 89,728 78,728 59,728 46,738 46,754 46,768 59,778 77,778 89,778 96,776 109,770 L 109,788 Z"/>
        <path fill="rgb(0,0,0)" stroke="none" d="M 232,796 C 200,796 182,775 182,754 182,733 200,710 232,710 265,710 281,734 281,754 281,775 263,796 232,796 Z M 205,754 C 205,769 215,778 232,778 248,778 259,769 259,754 259,738 248,728 232,728 215,728 205,738 205,754 Z"/>
        <path fill="rgb(0,0,0)" stroke="none" d="M 430,712 L 448,712 448,795 426,795 426,743 403,769 401,769 377,743 377,795 356,795 356,712 374,712 402,743 430,712 Z"/>
        <path fill="rgb(0,0,0)" stroke="none" d="M 606,712 L 625,712 625,795 604,795 604,743 580,769 577,769 553,743 553,795 532,795 532,712 551,712 579,743 606,712 Z"/>
        <path fill="rgb(0,0,0)" stroke="none" d="M 789,712 L 789,760 C 789,787 769,796 746,796 721,796 703,785 703,760 L 703,712 724,712 724,760 C 724,771 734,778 746,778 757,778 768,774 768,758 L 768,712 789,712 Z"/>
        <path fill="rgb(0,0,0)" stroke="none" d="M 937,795 L 889,742 889,795 868,795 868,712 887,712 933,763 933,712 954,712 954,795 937,795 Z"/>
        <path fill="rgb(0,0,0)" stroke="none" d="M 1036,795 L 1058,795 1058,712 1036,712 1036,795 1036,795 Z"/>
        <path fill="rgb(0,0,0)" stroke="none" d="M 1212,788 C 1201,794 1191,796 1178,796 1145,796 1128,775 1128,754 1128,731 1147,710 1180,710 1192,710 1203,713 1211,717 L 1211,736 C 1202,731 1192,728 1182,728 1163,728 1150,738 1150,754 1150,768 1163,778 1181,778 1192,778 1199,776 1212,770 L 1212,788 Z"/>
        <path fill="rgb(0,0,0)" stroke="none" d="M 1344,795 L 1337,778 1298,778 1291,795 1269,795 1303,712 1328,712 1366,795 1344,795 Z M 1304,764 L 1330,764 1316,731 1304,764 Z"/>
        <path fill="rgb(0,0,0)" stroke="none" d="M 1461,727 L 1461,795 1439,795 1439,727 1408,727 1408,712 1492,712 1492,727 1461,727 Z"/>
        <path fill="rgb(0,0,0)" stroke="none" d="M 1557,795 L 1578,795 1578,712 1557,712 1557,795 1557,795 Z"/>
        <path fill="rgb(0,0,0)" stroke="none" d="M 1693,796 C 1662,796 1644,775 1644,754 1644,733 1660,710 1693,710 1725,710 1743,734 1743,754 1743,775 1724,796 1693,796 Z M 1666,754 C 1666,769 1677,778 1693,778 1710,778 1720,769 1720,754 1720,738 1710,728 1693,728 1677,728 1666,738 1666,754 Z"/>
        <path fill="rgb(0,0,0)" stroke="none" d="M 1875,795 L 1827,742 1827,795 1806,795 1806,712 1826,712 1872,763 1872,712 1893,712 1893,795 1875,795 Z"/>
        <path fill="rgb(0,0,0)" stroke="none" d="M 2018,734 C 2005,728 1998,726 1990,726 1983,726 1978,729 1978,733 1978,746 2022,742 2022,771 2022,787 2008,796 1989,796 1974,796 1967,792 1957,788 L 1957,770 C 1970,778 1977,781 1987,781 1995,781 1999,778 1999,774 1999,760 1956,764 1956,735 1956,720 1969,710 1989,710 1998,710 2006,713 2018,717 L 2018,734 Z"/>
       </g>
      </g>
     </g>
    </g>
   </g>
  </g>
 </g>
</svg>